# xmcd
#
# Track frame offsets:
# 150
# 13678
# 24348
# 46231
# 61601
# 71942
# 87558
# 100193
# 115024
# 131140
# 146456
# 162039
#
# Disc length: 2325 seconds
#
#
# Revision: 2
# Processed by: cddbd v1.5.1PL0 Copyright (c) Steve Scherf et al.
# Submitted via: FreeRIP 2.94 
#
DISCID=9a09130c
DTITLE=Erick Hovey - Prairie Dance Music
DYEAR=2001
DGENRE=Blues
TTITLE0=Blues And Love
TTITLE1=Gonna Tell
TTITLE2=Down The River Of Love
TTITLE3=Fool Like Me
TTITLE4=Fatalistic Blues
TTITLE5=Turn Up The Sky
TTITLE6=Devil In My Pocket
TTITLE7=She's Alright
TTITLE8=Bondo Mondo
TTITLE9=Mamma's Little Baby
TTITLE10=Food
TTITLE11=Love Me Baby
EXTD=As heard on\nBluesfestRadio.com
EXTT0=
EXTT1=
EXTT2=
EXTT3=
EXTT4=
EXTT5=
EXTT6=
EXTT7=
EXTT8=
EXTT9=
EXTT10=
EXTT11=
PLAYORDER=
